<svg version="1.2" xmlns="http://www.w3.org/2000/svg" viewBox="0 0 980 556" width="980" height="556"><style>.a{fill:#fff}</style><path class="a" d="m550 0.3h31.5c24.9 0 31.2 0.6 30.4 2.7-0.6 1.4-45.3 126.4-99.7 277.6l-98.8 275.1h-31-31.2l8.1-23.1c4.5-12.5 49.2-137.4 99.5-277.7z"/><path class="a" d="m298.7 61.8c0.8-0.2 1.4 24.5 1.4 54.9v55.1l-104.3 52.3-104.5 52.3 104.5 54.3 104.3 54.3v54.7c0 30-0.4 54.7-1 54.7-0.4 0-68-38.2-150.1-84.9l-149-85v-46.9-46.8l7.8-4.5c4-2.4 71-40.4 148.4-84.5 77.6-43.9 141.5-80 142.5-80z"/><path class="a" d="m680.9 61.6c0.8 0 187.2 105.3 272.6 154.1l25.5 14.5 0.6 47 0.4 46.9-149.1 85.2c-81.8 46.7-149.4 85.1-150 85.1-0.6 0-1-24.7-1-54.7v-54.7l104.3-53.9 104.3-53.9-17.1-8.6c-9.2-4.9-56-28.8-103.7-53.3l-86.8-44.5-0.6-54.7c-0.2-30 0-54.5 0.6-54.5z"/></svg>